<svg xmlns="http://www.w3.org/2000/svg" viewBox="0 0 1200 700" preserveAspectRatio="xMidYMid slice">
  <defs>
    <linearGradient id="bg" x1="0" y1="0" x2="1" y2="1">
      <stop offset="0%" stop-color="#0d0b16"/>
      <stop offset="100%" stop-color="#1f0f3f"/>
    </linearGradient>
    <linearGradient id="phoneGlow" x1="0" y1="0" x2="1" y2="1">
      <stop offset="0%" stop-color="#7c3aed" stop-opacity="0.9"/>
      <stop offset="100%" stop-color="#1e293b" stop-opacity="0.15"/>
    </linearGradient>
  </defs>
  <rect width="1200" height="700" fill="url(#bg)" />
  <circle cx="920" cy="150" r="180" fill="#7c3aed" fill-opacity="0.14" />
  <circle cx="220" cy="520" r="170" fill="#ffffff" fill-opacity="0.08" />
  <rect x="170" y="80" width="180" height="360" rx="36" fill="#111827" />
  <rect x="340" y="160" width="220" height="380" rx="44" fill="#111827" />
  <rect x="840" y="120" width="190" height="420" rx="42" fill="#111827" />
  <rect x="740" y="220" width="220" height="360" rx="40" fill="#111827" />
  <rect x="-80" y="460" width="360" height="280" rx="34" fill="url(#phoneGlow)" />
  <rect x="820" y="520" width="340" height="220" rx="34" fill="url(#phoneGlow)" />
  <g fill="#fff" fill-opacity="0.9">
    <circle cx="440" cy="290" r="8" />
    <circle cx="780" cy="360" r="8" />
    <circle cx="720" cy="260" r="8" />
    <circle cx="520" cy="510" r="8" />
  </g>
  <rect x="470" y="230" width="100" height="32" rx="16" fill="#7c3aed" fill-opacity="0.9" />
  <rect x="480" y="300" width="120" height="22" rx="12" fill="#ffffff" fill-opacity="0.4" />
  <rect x="480" y="340" width="95" height="18" rx="9" fill="#ffffff" fill-opacity="0.3" />
  <rect x="690" y="250" width="130" height="26" rx="13" fill="#7c3aed" fill-opacity="0.9" />
</svg>